<svg id="Layer_1" enable-background="new 0 0 512 512" viewBox="0 0 512 512" xmlns="http://www.w3.org/2000/svg"><path d="m405.8 391.5c-4 .1-8.3.6-12.1 1.9l-127.1 43.2c2.4-11.3-4.6-20.9-16-25.8l-75.2-31.6c-14.8-7.5-31.8-11.5-48.7-7.3 0 0-25.8 5.9-25.8 5.9-1.7-7.7-9-13.5-16.9-13.4l-44.2-.1c-9.6 0-17.5 7.8-17.5 17.4l-.2 103.7c-.2 9.4 8 17.7 17.4 17.5 0 0 44.2.1 44.2.1 7.8 0 14.4-5.2 16.6-12.3 40.5 6.2 114.4 18.1 154.8 21.2 10.9 0 21.7-2.5 30.7-7.2 0 0 136.6-72.2 136.6-72.2 24.9-14 9.1-41.7-16.6-41zm-316-6.6s-.7 99.3-.7 99.3c0 .9.3 1.7.6 2.5-.5 2.9-2.9 5.1-5.9 5.1l-44.2-.1c-1.6 0-3.2-.6-4.3-1.8-1.2-1.2-1.8-2.7-1.8-4.3l.2-103.7c0-3.4 2.8-6.1 6.1-6.1l44.2.1c1.6 0 3.2.6 4.3 1.8 2.2 1.8 2 4.6 1.5 7.2zm327.3 37.6-136.6 72.2c-9.4 4.9-21.3 6.9-32.8 5.5l-63.7-8-82.8-12.7.2-90.1 27.9-6.4c10.9-2.5 22.8-1.5 32.5 2.7l84.4 35.6c5 2.1 8.4 5.4 9.3 9.1 1.3 14.3-20.4 17.7-30.7 12.9 0 0-50.3-20.9-50.3-20.9-6.8-2.8-11.2 7.6-4.3 10.5 0 0 50.3 20.9 50.3 20.9 4.6 1.9 9.9 3 15.2 3 3.5 3.7 153.3-50.6 161.6-52.5 8.4-3.5 23.7.2 25.9 7.8 1.6 4.4-2.1 8.3-6.1 10.4zm-302.5-280.3h-21.8v-11.3h21.8zm0 31.8h-21.8v-11.3h21.8zm0 31.8h-21.8v-11.3h21.8zm48.4-63.6h-21.8v-11.3h21.8zm0 31.8h-21.8v-11.3h21.8zm0 31.8h-21.8v-11.3h21.8zm48.5-63.6h-21.8v-11.3h21.8zm0 31.8h-21.8v-11.3h21.8zm0 31.8h-21.8v-11.3h21.8zm82-145.1h11.3v77.7h-11.3zm32.3 0h11.3v87.4h-11.3zm34.4 0h11.3v98.3h-11.3zm43.4 98.3h-11.3v-98.3h11.3zm47.5-27v11.3h15.3l-24.4 19.7v-136c0-3.1-2.5-5.7-5.7-5.7h-17.5v-15.6c0-3.1-2.5-5.7-5.7-5.7h-130c-3.1 0-5.7 2.5-5.7 5.7v15.7h-17.5c-3.1 0-5.7 2.5-5.7 5.7v134.5l-8.3-2.4v-59.5c0-3.1-2.5-5.7-5.7-5.7h-17.5v-15.7c0-3.1-2.5-5.7-5.7-5.7h-21.9v-15.6c0-3.1-2.5-5.7-5.7-5.7h-74.9c-3.1 0-5.7 2.5-5.7 5.7v15.7h-21.5c-3.1 0-5.7 2.5-5.7 5.7v15.6h-17.5c-3.1 0-5.7 2.5-5.7 5.7v186.8l-33.5 20.3 5.9 9.7 58.4-35.5 60.1 45.6c2.2 1.7 5.3 1.5 7.3-.4 26.3-24.7 100.9-94.5 126.1-118.2l49.2 51.9c.7.7 1.5 1.3 2.5 1.4 1.7.6 3.7.2 5.2-.9l58.3-47.2c18.5-14.9 56.9-46 75.2-60.8l-3.4 13.6 11 2.7 9.2-36.9h-38.8zm-330.6-69.4h63.5v10h-63.6v-10zm-27.6 21.4h118.7v10h-118.7zm141.9 153.5-82.4 77.3-59.4-45.1c-1.8-1.4-4.4-1.5-6.3-.3l-16.9 10.2v-174.3h165zm54.1-226.2h118.7v10h-118.7zm72.4 217.1-24.8 20.1-49.5-52.3c-2.1-2.2-5.8-2.3-8-.2l-32.9 30.9v-56.1l115.2 33.6zm69.4-56.2c-9.8 7.9-49.2 39.8-58.2 47v-19.1c0-2.5-1.7-4.7-4.1-5.4l-102.8-30v-132.1h165v139.6zm-131.1 138.1c3.1 0 5.7-2.5 5.7-5.7s-2.5-5.7-5.7-5.7h-10.7c1.3-10.6-12.7-10.6-11.3.1-9.1.3-16.4 7.7-16.4 16.8v6.2c0 9.1 7.3 16.6 16.4 16.8v17.4h-10.7c-3.1 0-5.7 2.5-5.7 5.7s2.5 5.7 5.7 5.7h10.7v2.3c0 7.4 11.3 7.4 11.3 0v-2.3c9.1-.3 16.4-7.7 16.4-16.9v-6.2c0-9.1-7.3-16.6-16.4-16.8v-17.4zm-22 17.3c-2.8-.3-5-2.6-5-5.5v-6.2c0-2.9 2.2-5.2 5-5.5zm16.3 17v6.2c0 2.9-2.2 5.2-5 5.5v-17.2c2.8.3 5 2.6 5 5.5zm56.8-11.3c0-37.2-30.3-67.5-67.5-67.5-89.6 3.7-89.5 131.3 0 135 37.2 0 67.5-30.3 67.5-67.5zm-123.7 0c0-31 25.2-56.2 56.2-56.2 74.5 3.1 74.5 109.3 0 112.4-31 0-56.2-25.2-56.2-56.2z"/></svg>