<svg clip-rule="evenodd" fill-rule="evenodd" height="7.111in" image-rendering="optimizeQuality" shape-rendering="geometricPrecision" text-rendering="geometricPrecision" viewBox="0 0 7111 7111" width="7.111in" xmlns="http://www.w3.org/2000/svg"><g id="Layer_x0020_1"><path d="m6204 6282h-5316c-101 0-183-82-183-183 0-1496 268-2255 797-2255h4088c529 0 797 759 797 2255 0 101-82 183-183 183zm-4702-2271c-639 0-631 1778-631 2088 0 9 8 16 17 16h5316c9 0 17-7 17-16 0-310 9-2088-631-2088z"/><path d="m1689 5161c-263 0-477-213-477-476s214-477 477-477c262 0 476 214 476 477s-214 476-476 476zm0-786c-171 0-310 139-310 310s139 310 310 310c170 0 309-139 309-310s-139-310-309-310z"/><path d="m5404 5161c-263 0-477-213-477-476s214-477 477-477 476 214 476 477-213 476-476 476zm0-786c-171 0-310 139-310 310s139 310 310 310 310-139 310-310-139-310-310-310z"/><path d="m5213 6282h-3334c-46 0-83-38-83-84v-437c0-275 223-499 498-499h2504c275 0 498 224 498 499v437c0 47-37 84-83 84zm-3251-167h3168v-354c0-183-149-332-332-332h-2504c-183 0-332 149-332 332z"/><path d="m5594 4011h-4096c-56 0-97-55-79-109l330-1007c59-178 147-448 387-448h2820c240 0 328 270 387 448l330 1007c18 54-22 109-79 109zm-3981-167h3866l-295-897c-69-211-128-333-228-333h-2820c-99 0-159 122-228 333z"/><path d="m5594 4011c-61 0-102-64-75-119l303-633c11-23 32-40 57-45l293-64c211-46 401 84 394 303-6 197-171 385-376 430-67 15-574 128-596 128zm360-643-211 442 411-90c199-43 315-286 202-381-36-29-90-39-148-26z"/><path d="m1517 4011c-22 0-529-113-596-128-329-72-501-482-272-672 75-63 181-85 290-61l293 64c25 5 46 22 57 45l303 633c27 55-14 119-75 119zm-663-704c-86 0-146 53-143 141 4 120 116 244 246 272l411 90-211-442-254-55c-17-4-33-6-49-6z"/><path d="m2351 6282c-46 0-84-38-84-84v-852c0-46 38-84 84-84s83 38 83 84v852c0 47-37 84-83 84z"/><path d="m2948 6282c-46 0-83-38-83-84v-852c0-46 37-84 83-84s84 38 84 84v852c0 47-38 84-84 84z"/><path d="m3546 6282c-46 0-83-38-83-84v-852c0-46 37-84 83-84s83 38 83 84v852c0 47-37 84-83 84z"/><path d="m4144 6282c-46 0-84-38-84-84v-852c0-46 38-84 84-84s83 38 83 84v852c0 47-37 84-83 84z"/><path d="m4741 6282c-45 0-83-38-83-84v-852c0-46 38-84 83-84 46 0 84 38 84 84v852c0 47-37 84-84 84z"/><path d="m2457 3653c-64 0-104-69-72-125l393-681c23-40 74-54 114-31s54 74 31 114l-394 682c-15 26-43 41-72 41z"/><path d="m3349 3653c-63 0-104-69-72-125l394-681c23-40 74-54 114-31 39 23 53 74 30 114l-393 682c-16 26-44 41-73 41z"/><path d="m4242 3653c-64 0-104-69-72-125l393-681c23-40 74-54 114-31s54 74 31 114l-394 682c-16 26-44 41-72 41z"/><path d="m1338 7090h-192c-243 0-441-198-441-441v-550c0-46 37-84 83-84s84 38 84 84c0 9 7 16 16 16h808c46 0 84 37 84 83v451c0 243-198 441-442 441zm-466-809v368c0 151 123 275 274 275h192c152 0 275-124 275-275v-367h-725c-6 0-11 0-16-1z"/><path d="m5945 7090h-192c-243 0-441-198-441-441v-451c0-46 37-83 83-83h810c8 0 15-7 16-14 14-102 166-92 166 11v537c-1 243-198 441-442 441zm-467-808v367c0 151 123 275 275 275h192c151 0 275-124 275-275v-368c-5 1-11 1-16 1z"/><path d="m6048 2427c-420 0-809-219-1027-576h-2931c-218 357-607 576-1027 576-436 0-839-237-1052-619-31-55 10-123 73-123h636l343-461-343-460h-636c-64 0-104-69-73-124 212-382 616-619 1052-619 420 0 809 219 1027 576h2931c218-357 607-576 1027-576 437 0 840 237 1052 619 31 55-9 124-73 124h-636l-343 460 343 461h636c64 0 104 68 73 124-212 381-615 618-1052 618zm-4006-742h3027c30 0 58 16 73 42 183 329 530 534 906 534 327 0 631-154 826-410h-525c-26 0-51-12-67-33l-404-544c-22-30-22-70 0-100l404-543c16-22 41-34 67-34h525c-195-256-499-410-826-410-376 0-723 205-906 534-15 26-43 43-73 43h-3027c-30 0-58-17-73-43-183-329-530-533-906-533-326 0-631 153-826 409h525c26 0 51 12 67 34l404 543c22 30 22 70 0 100l-404 544c-16 21-41 33-67 33h-525c195 256 500 410 826 410 376 0 723-205 906-534 15-26 43-42 73-42z"/></g></svg>