<svg id="Layer_1" enable-background="new 0 0 512 512" viewBox="0 0 512 512" xmlns="http://www.w3.org/2000/svg"><path d="m317.47 461.169h-271.049v-32.452h59.274 105.619 95.97c4.407 0 7.979-3.572 7.979-7.979s-3.572-7.979-7.979-7.979h-87.991v-162.178c0-4.407-3.601-7.979-8.007-7.979h-105.591c-4.407 0-7.979 3.572-7.979 7.979v162.177h-32.31v-211.31c17.433-2.023 32.352-10.565 40.996-22.533 9.939 13.759 28.168 23.003 48.976 23.003 20.796 0 39.015-9.242 48.949-22.999 9.939 13.757 28.167 22.999 48.974 22.999 20.829 0 39.072-9.262 49.005-23.043 9.932 13.781 28.175 23.043 49.004 23.043 20.808 0 39.037-9.244 48.975-23.003 8.645 11.968 23.564 20.51 40.997 22.533v95.337c0 4.407 3.572 7.979 7.979 7.979s7.979-3.572 7.979-7.979v-95.352c10.686-1.259 20.844-5.015 29.102-10.85 12.612-8.901 19.846-21.868 19.846-35.576v-36.358c0-1.205-.273-2.394-.798-3.478l-39.385-81.316c-6.749-13.925-20.19-22.24-35.954-22.24h-66.405-74.808-.028-70.96-74.836-66.405c-15.747 0-29.177 8.314-35.927 22.241l-39.384 81.316c-.525 1.084-.798 2.273-.798 3.478v36.358c0 13.707 7.233 26.674 19.842 35.573 8.267 5.842 18.427 9.6 29.106 10.856v211.323h-11.007c-4.407 0-7.979 3.572-7.979 7.979v48.41c0 4.407 3.572 7.979 7.979 7.979h279.029c4.407 0 7.979-3.572 7.979-7.979s-3.572-7.98-7.979-7.98zm-162.092-275.209c-22.223 0-40.997-14.175-40.997-30.953v-28.378h81.965v28.378c0 16.778-18.76 30.953-40.968 30.953zm53.332-158.386-.053.386-11.295 82.71h-79.505l30.713-83.096h60.14zm16.104 0h57.034l6.509 47.588 4.838 35.508h-79.723l3.485-25.46zm133.276 0 20.717 56.009 10.019 27.087h-79.526l-3.759-27.619-1.362-9.959-6.202-45.518zm-104.789 158.386c-22.223 0-40.996-14.175-40.996-30.953v-28.378h81.994v28.378c-.001 16.778-18.775 30.953-40.998 30.953zm98.008 0c-22.223 0-40.996-14.175-40.996-30.953v-28.378h81.993v28.378c0 16.778-18.774 30.953-40.997 30.953zm125.828-8.412c-7.266 5.134-16.632 8.11-26.384 8.385-.298.001-.597.009-.895.017-.199.005-.398.011-.597.011-22.223 0-40.997-14.175-40.997-30.953v-28.378h81.965v28.378c0 8.451-4.77 16.666-13.092 22.54zm-47.087-149.974c9.503 0 17.575 4.95 21.593 13.239l33.834 69.857h-79.637l-30.735-83.096zm-375.007 13.241c4.019-8.291 12.081-13.241 21.566-13.241h54.949l-30.714 83.096h-79.634zm-38.585 114.192v-28.378h81.964v28.378c0 16.489-18.134 30.453-39.852 30.93-.375-.054-.755-.091-1.144-.091-.394 0-.778.038-1.157.093-.122-.002-.241-.006-.365-.006-9.732-.275-19.088-3.251-26.359-8.387-8.316-5.872-13.087-14.087-13.087-22.539zm97.216 103.554h89.661v154.198h-89.661zm279.339 34.291v-34.291h-130.318v58.454h37.346c4.407 0 7.979 3.572 7.979 7.979s-3.572 7.979-7.979 7.979h-45.325c-4.407 0-7.979-3.572-7.979-7.979v-74.412c0-4.407 3.572-7.979 7.979-7.979h146.276c4.407 0 7.979 3.572 7.979 7.979v42.27c0 4.407-3.572 7.979-7.979 7.979s-7.979-3.573-7.979-7.979zm-41.251 135.808h.882c.077.016.155.025.232.039.084.015.168.026.252.038.354.052.713.086 1.08.089.023 0 .044.005.067.005.015 0 .029-.003.044-.003l55.038-.169h46.948c.52 0 1.026-.054 1.519-.149l16.133-.049c3.451-.011 6.503-2.239 7.567-5.522l29.174-90.125c1.615-5.012.772-10.339-2.35-14.664-3.13-4.265-7.938-6.712-13.195-6.712h-162.894l-5.628-20.321c-.957-3.456-4.104-5.849-7.69-5.849h-26.313c-4.407 0-7.979 3.572-7.979 7.979s3.572 7.979 7.979 7.979h20.243l5.657 20.427c.016.056.029.113.046.168l25.472 91.975c-11.593 3.35-20.098 14.043-20.098 26.689 0 15.335 12.477 27.813 27.812 27.813h3.829c-.902 2.522-1.396 5.235-1.396 8.063 0 13.246 10.776 24.021 24.021 24.021 13.246 0 24.022-10.776 24.022-24.021 0-2.828-.495-5.541-1.396-8.063h26.954c-.902 2.522-1.396 5.235-1.396 8.063 0 13.246 10.776 24.021 24.021 24.021 13.246 0 24.021-10.776 24.021-24.021 0-2.828-.495-5.541-1.396-8.063h14.778c4.407 0 7.979-3.572 7.979-7.979s-3.572-7.979-7.979-7.979h-136.06c-6.537 0-11.854-5.318-11.854-11.855 0-6.519 5.317-11.825 11.854-11.825zm143.391-101.262c.108 0 .16.013.163.013h.001c.007.005.066.046.129.131.085.117.105.181.105.181.002.007.001.069-.038.189l-27.389 84.611-58.361.179h-49.459l-23.625-85.304zm-108.873 148.965c0 4.446-3.617 8.063-8.064 8.063-4.446 0-8.063-3.617-8.063-8.063s3.617-8.063 8.063-8.063c4.447 0 8.064 3.617 8.064 8.063zm72.204 0c0 4.446-3.617 8.063-8.063 8.063s-8.063-3.617-8.063-8.063 3.617-8.063 8.063-8.063 8.063 3.617 8.063 8.063zm-81.23-79.646v-53.192c0-4.407 3.572-7.979 7.979-7.979s7.979 3.572 7.979 7.979v53.192c0 4.407-3.572 7.979-7.979 7.979s-7.979-3.572-7.979-7.979zm31.18 0v-53.192c0-4.407 3.572-7.979 7.979-7.979s7.979 3.572 7.979 7.979v53.192c0 4.407-3.572 7.979-7.979 7.979s-7.979-3.572-7.979-7.979zm31.178 0v-53.192c0-4.407 3.572-7.979 7.979-7.979s7.979 3.572 7.979 7.979v53.192c0 4.407-3.572 7.979-7.979 7.979s-7.979-3.572-7.979-7.979z"/></svg>